<?xml version="1.0" standalone="no"?>
<!DOCTYPE svg PUBLIC "-//W3C//DTD SVG 20010904//EN"
 "http://www.w3.org/TR/2001/REC-SVG-20010904/DTD/svg10.dtd">
<svg version="1.0" xmlns="http://www.w3.org/2000/svg"
 width="1000.000000pt" height="1000.000000pt" viewBox="0 0 1000.000000 1000.000000"
 preserveAspectRatio="xMidYMid meet">
<metadata>
Created by potrace 1.11, written by Peter Selinger 2001-2013
</metadata>
<g transform="translate(0.000000,1000.000000) scale(0.100000,-0.100000)"
fill="#000000" stroke="none">
<path d="M0 5000 l0 -5000 5000 0 5000 0 0 5000 0 5000 -5000 0 -5000 0 0
-5000z m1770 955 c367 -56 666 -303 785 -650 165 -479 -82 -1009 -560 -1199
-137 -55 -208 -69 -370 -69 -130 0 -163 3 -246 26 -366 97 -625 359 -716 725
-23 93 -23 331 0 424 75 299 269 538 540 663 181 84 370 110 567 80z m2375
-15 c344 -93 599 -341 702 -685 24 -82 27 -105 27 -255 0 -151 -3 -173 -28
-255 -54 -178 -127 -303 -251 -427 -181 -181 -393 -274 -653 -285 -260 -12
-484 61 -683 222 -147 119 -255 283 -316 482 -25 81 -27 101 -27 263 0 162 2
182 27 263 110 358 380 607 747 688 117 26 339 21 455 -11z m2267 2 c178 -48
327 -132 452 -256 118 -116 202 -257 253 -423 25 -81 27 -101 27 -263 0 -162
-2 -182 -27 -263 -105 -343 -353 -582 -705 -679 -113 -32 -382 -31 -496 0
-181 50 -323 132 -451 260 -124 124 -197 249 -251 427 -25 81 -27 105 -28 250
0 125 4 174 18 225 96 346 329 596 655 705 150 50 401 57 553 17z m2270 0
c362 -97 622 -356 715 -712 34 -130 36 -314 5 -443 -46 -186 -130 -338 -261
-468 -188 -187 -393 -275 -666 -286 -116 -4 -157 -2 -235 15 -374 77 -661 349
-762 721 -28 102 -31 342 -5 445 47 188 125 324 267 466 162 162 316 240 560
284 65 12 307 -2 382 -22z"/>
</g>
</svg>
